<svg width="400" height="400" viewBox="0 0 400 400" fill="none" xmlns="http://www.w3.org/2000/svg">
<g clip-path="url(#clip0)">
<path d="M266.29 177.03C266.29 178.14 266.22 268.95 266.22 268.95H266.15C266.15 282.18 255.44 292.9 242.2 292.9C232.46 292.9 224.08 287.08 220.34 278.74C216.66 286.49 208.78 291.84 199.63 291.84C190.5 291.84 182.61 286.5 178.94 278.74C175.21 287.08 166.83 292.9 157.08 292.9C143.85 292.9 133.13 282.17 133.13 268.95H133.07C133.07 268.95 133 178.13 133 177.03C133 136.82 163.16 108 199.65 108C236.14 108 266.29 136.82 266.29 177.03Z" fill="#E1BFF7"/>
<path d="M206.87 181.98C204.8 183.94 201.96 185.05 198.89 184.84C195.52 184.61 192.63 182.82 190.87 180.22" stroke="#491249" stroke-width="3" stroke-miterlimit="10" stroke-linecap="round" stroke-linejoin="round"/>
<path d="M177.51 177.17C185.231 177.17 191.49 170.911 191.49 163.19C191.49 155.469 185.231 149.21 177.51 149.21C169.789 149.21 163.53 155.469 163.53 163.19C163.53 170.911 169.789 177.17 177.51 177.17Z" fill="white"/>
<path d="M177.51 172.03C182.392 172.03 186.35 168.072 186.35 163.19C186.35 158.308 182.392 154.35 177.51 154.35C172.628 154.35 168.67 158.308 168.67 163.19C168.67 168.072 172.628 172.03 177.51 172.03Z" fill="#491249"/>
<path d="M221.78 177.17C229.501 177.17 235.76 170.911 235.76 163.19C235.76 155.469 229.501 149.21 221.78 149.21C214.059 149.21 207.8 155.469 207.8 163.19C207.8 170.911 214.059 177.17 221.78 177.17Z" fill="white"/>
<path d="M221.779 172.03C226.662 172.03 230.619 168.072 230.619 163.19C230.619 158.308 226.662 154.35 221.779 154.35C216.897 154.35 212.939 158.308 212.939 163.19C212.939 168.072 216.897 172.03 221.779 172.03Z" fill="#491249"/>
<path d="M199.65 174.35C200.931 174.35 201.97 173.311 201.97 172.03C201.97 170.749 200.931 169.71 199.65 169.71C198.369 169.71 197.33 170.749 197.33 172.03C197.33 173.311 198.369 174.35 199.65 174.35Z" fill="#491249"/>
<path opacity="0.1" d="M266.24 238.19C266.24 255.12 266.23 268.95 266.23 268.95H266.16C266.16 282.18 255.45 292.9 242.21 292.9C232.47 292.9 224.09 287.08 220.35 278.74C216.67 286.49 208.79 291.84 199.64 291.84C190.51 291.84 182.62 286.5 178.95 278.74C175.22 287.08 166.84 292.9 157.09 292.9C143.86 292.9 133.14 282.17 133.14 268.95H133.07C133.07 268.95 133.06 257.55 133.06 242.79C139.34 241.91 145.96 243.49 151.13 247.2C155.19 250.1 158.31 254.15 162.3 257.15C166.35 260.18 171.39 262.06 176.43 261.72C181.03 261.4 185.29 259.31 189.66 257.81C198.81 254.71 208.85 254.26 218.22 256.56C222.87 257.69 227.5 259.5 232.28 259.17C240.57 258.61 246.91 251.99 253.25 246.62C257.13 243.3 261.54 240.29 266.24 238.19Z" fill="#4B194E"/>
<path d="M196.12 161.05C196.12 161.38 196.31 161.72 196.29 162.06C196.28 162.39 196.23 162.73 196.2 163.06C196.17 163.39 195.87 163.7 195.83 164.03C195.79 164.36 195.79 164.7 195.74 165.02C195.68 165.35 195.84 165.72 195.77 166.05C195.7 166.38 195.53 166.68 195.44 167.01C195.35 167.33 195.29 167.66 195.19 167.98C195.09 168.3 194.9 168.59 194.79 168.9C194.68 169.21 194.5 169.5 194.37 169.81C194.24 170.12 194.27 170.5 194.13 170.8C193.99 171.1 193.86 171.42 193.7 171.71C193.54 172 193.2 172.2 193.03 172.48C192.86 172.77 192.59 172.99 192.41 173.26C192.22 173.54 192.11 173.86 191.91 174.13C191.71 174.4 191.47 174.63 191.26 174.89C191.05 175.15 190.96 175.51 190.73 175.76C190.5 176 190.28 176.26 190.04 176.49C189.8 176.72 189.57 176.97 189.32 177.19C189.07 177.41 188.68 177.46 188.41 177.66C188.15 177.86 187.93 178.13 187.65 178.32C187.38 178.51 187.18 178.83 186.9 179.01C186.62 179.18 186.16 179.05 185.86 179.21C185.57 179.37 185.34 179.64 185.04 179.79C184.74 179.93 184.38 179.93 184.07 180.06C183.76 180.19 183.51 180.44 183.19 180.55C182.88 180.66 182.52 180.63 182.2 180.72C181.88 180.81 181.65 181.21 181.32 181.29C181 181.37 180.65 181.37 180.32 181.43C180 181.5 179.64 181.41 179.31 181.46C178.98 181.51 178.66 181.64 178.33 181.67C178 181.71 177.66 181.6 177.32 181.62C176.99 181.64 176.66 181.69 176.32 181.7C175.99 181.71 175.66 181.95 175.32 181.95C174.98 181.95 174.64 181.93 174.32 181.92C173.98 181.91 173.65 181.76 173.33 181.73C172.99 181.7 172.67 181.63 172.34 181.59C172 181.55 171.65 181.64 171.33 181.59C171 181.53 170.69 181.37 170.37 181.3C170.04 181.23 169.67 181.32 169.35 181.23C169.02 181.14 168.71 181.01 168.39 180.9C168.07 180.79 167.85 180.43 167.54 180.31C167.23 180.18 166.94 180.02 166.65 179.88C166.35 179.73 165.91 179.86 165.62 179.69C165.33 179.52 165.16 179.15 164.89 178.97C164.61 178.79 164.26 178.7 164 178.5C163.73 178.3 163.43 178.13 163.18 177.92C162.93 177.7 162.87 177.28 162.63 177.04C162.39 176.81 161.96 176.76 161.74 176.51C161.52 176.26 161.28 176.01 161.08 175.75C160.88 175.49 160.91 175.05 160.72 174.77C160.53 174.5 160.33 174.24 160.16 173.95C159.99 173.67 159.72 173.44 159.57 173.14C159.41 172.85 159.22 172.57 159.08 172.27C158.94 171.97 158.72 171.7 158.59 171.39C158.46 171.09 158.32 170.78 158.2 170.46C158.08 170.15 158.13 169.78 158.03 169.46C157.93 169.15 157.67 168.87 157.58 168.55C157.49 168.23 157.7 167.83 157.62 167.5C157.54 167.18 157.35 166.88 157.28 166.56C157.21 166.24 157.27 165.89 157.21 165.56C157.15 165.23 156.93 164.93 156.88 164.6C156.83 164.27 156.81 163.94 156.77 163.61C156.73 163.27 156.57 162.95 156.53 162.62C156.49 162.28 156.53 161.93 156.5 161.61C156.46 161.27 156.36 160.94 156.33 160.61C156.29 160.27 156.21 159.93 156.18 159.61C156.15 159.26 156.26 158.92 156.24 158.59C156.21 158.24 156.1 157.91 156.08 157.59C156.06 157.24 156.06 156.9 156.06 156.58C156.06 156.23 156.19 155.9 156.21 155.58C156.23 155.23 156.33 154.91 156.37 154.59C156.42 154.25 156.3 153.88 156.39 153.57C156.48 153.24 156.53 152.89 156.66 152.58C156.79 152.27 157.16 152.09 157.35 151.8C157.53 151.52 157.7 151.25 157.93 151C158.14 150.76 158.27 150.4 158.53 150.18C158.77 149.97 159.12 149.86 159.4 149.66C159.66 149.48 160 149.39 160.3 149.22C160.58 149.06 160.81 148.8 161.12 148.64C161.41 148.49 161.7 148.33 162.01 148.18C162.3 148.04 162.65 148.01 162.97 147.87C163.27 147.74 163.49 147.41 163.81 147.29C164.11 147.17 164.52 147.29 164.84 147.17C165.15 147.06 165.41 146.79 165.73 146.67C166.05 146.56 166.43 146.62 166.75 146.52C167.07 146.41 167.38 146.26 167.7 146.17C168.03 146.07 168.33 145.92 168.65 145.83C168.98 145.74 169.31 145.66 169.63 145.58C169.96 145.5 170.29 145.41 170.61 145.34C170.94 145.27 171.29 145.29 171.62 145.23C171.96 145.17 172.3 145.19 172.63 145.14C172.97 145.09 173.28 144.91 173.61 144.88C173.95 144.84 174.27 144.66 174.61 144.63C174.95 144.6 175.3 144.73 175.63 144.72C175.97 144.71 176.31 144.72 176.64 144.72C176.98 144.72 177.32 144.56 177.66 144.57C178 144.58 178.33 144.74 178.66 144.77C179 144.8 179.34 144.75 179.67 144.79C180.01 144.83 180.34 144.9 180.67 144.95C181.01 145 181.35 145.03 181.67 145.1C182 145.17 182.31 145.33 182.64 145.41C182.97 145.49 183.27 145.67 183.59 145.77C183.92 145.87 184.31 145.77 184.62 145.88C184.94 146 185.16 146.35 185.47 146.48C185.78 146.61 186.19 146.52 186.49 146.67C186.8 146.82 187.13 146.91 187.43 147.07C187.73 147.23 187.98 147.48 188.27 147.66C188.56 147.84 188.87 147.98 189.15 148.18C189.43 148.37 189.69 148.59 189.96 148.8C190.23 149.01 190.32 149.43 190.57 149.65C190.83 149.87 191.24 149.92 191.48 150.16C191.72 150.4 191.93 150.67 192.15 150.92C192.38 151.17 192.49 151.52 192.7 151.78C192.91 152.04 193.32 152.16 193.51 152.44C193.71 152.72 193.77 153.08 193.95 153.37C194.13 153.66 194.42 153.89 194.57 154.18C194.73 154.48 194.61 154.91 194.75 155.22C194.89 155.53 195.16 155.77 195.28 156.09C195.4 156.41 195.57 156.71 195.66 157.03C195.76 157.35 195.72 157.71 195.79 158.04C195.86 158.37 196.05 158.68 196.1 159.01C196.15 159.34 196 159.7 196.02 160.03C196.02 160.39 196.12 160.72 196.12 161.05Z" stroke="#5E5E5E" stroke-width="3.2761" stroke-miterlimit="10"/>
<path d="M203.01 161.05C203.01 161.38 203.23 161.72 203.25 162.05C203.26 162.38 203.37 162.71 203.4 163.04C203.43 163.37 203.26 163.73 203.3 164.06C203.34 164.39 203.3 164.74 203.36 165.07C203.42 165.4 203.79 165.67 203.86 165.99C203.93 166.32 203.78 166.69 203.86 167.02C203.95 167.34 204.24 167.6 204.34 167.92C204.44 168.24 204.49 168.57 204.61 168.88C204.72 169.19 204.8 169.52 204.93 169.83C205.06 170.14 205.09 170.49 205.24 170.79C205.38 171.09 205.57 171.38 205.73 171.67C205.89 171.96 206 172.29 206.17 172.58C206.34 172.87 206.69 173.04 206.88 173.32C207.07 173.6 207.21 173.9 207.41 174.17C207.61 174.44 207.73 174.77 207.95 175.03C208.16 175.29 208.5 175.43 208.73 175.68C208.96 175.92 209.16 176.19 209.4 176.42C209.64 176.65 209.79 176.98 210.05 177.2C210.3 177.42 210.63 177.55 210.9 177.75C211.16 177.95 211.41 178.18 211.69 178.37C211.96 178.56 212.26 178.72 212.54 178.89C212.82 179.06 213.07 179.3 213.37 179.46C213.66 179.62 213.94 179.82 214.25 179.96C214.55 180.1 214.93 180.08 215.24 180.21C215.55 180.34 215.82 180.57 216.13 180.69C216.44 180.8 216.83 180.67 217.16 180.77C217.48 180.86 217.8 180.92 218.13 181C218.45 181.08 218.74 181.3 219.07 181.36C219.39 181.43 219.73 181.43 220.06 181.48C220.39 181.53 220.7 181.73 221.03 181.77C221.36 181.81 221.7 181.8 222.03 181.82C222.36 181.84 222.69 181.91 223.03 181.92C223.36 181.93 223.7 181.97 224.04 181.97C224.38 181.97 224.71 181.91 225.04 181.9C225.38 181.89 225.7 181.63 226.02 181.6C226.36 181.57 226.71 181.75 227.03 181.71C227.37 181.67 227.72 181.75 228.04 181.69C228.37 181.63 228.69 181.48 229.01 181.41C229.34 181.34 229.61 181.04 229.92 180.95C230.25 180.86 230.59 180.86 230.9 180.75C231.22 180.64 231.58 180.66 231.89 180.54C232.2 180.41 232.47 180.18 232.77 180.04C233.07 179.89 233.32 179.66 233.61 179.49C233.9 179.32 234.26 179.28 234.54 179.09C234.82 178.91 234.99 178.57 235.25 178.37C235.52 178.17 235.75 177.94 236 177.72C236.25 177.5 236.67 177.46 236.91 177.23C237.15 177 237.22 176.61 237.44 176.36C237.66 176.11 237.95 175.92 238.16 175.66C238.36 175.4 238.58 175.14 238.77 174.87C238.96 174.6 239.03 174.25 239.2 173.96C239.37 173.68 239.5 173.37 239.66 173.08C239.82 172.79 240.04 172.54 240.18 172.23C240.32 171.93 240.63 171.7 240.76 171.4C240.89 171.1 240.81 170.71 240.93 170.39C241.05 170.08 241.26 169.81 241.37 169.49C241.47 169.18 241.56 168.86 241.65 168.53C241.74 168.21 241.72 167.86 241.8 167.54C241.88 167.22 242.04 166.92 242.11 166.59C242.18 166.27 242.39 165.97 242.45 165.64C242.51 165.31 242.35 164.95 242.4 164.62C242.45 164.29 242.63 163.98 242.67 163.65C242.71 163.31 242.79 162.98 242.83 162.66C242.87 162.32 242.96 161.99 243 161.66C243.04 161.32 242.77 160.95 242.81 160.62C242.85 160.28 243.19 159.97 243.22 159.65C243.25 159.3 243.07 158.95 243.1 158.63C243.13 158.28 243.14 157.95 243.15 157.63C243.17 157.28 243.11 156.95 243.11 156.63C243.11 156.28 243.28 155.94 243.26 155.62C243.24 155.27 243.33 154.92 243.28 154.6C243.23 154.26 242.85 153.99 242.77 153.68C242.68 153.35 242.66 153.02 242.52 152.72C242.39 152.41 242.39 152.03 242.21 151.74C242.03 151.46 241.64 151.34 241.42 151.08C241.21 150.84 240.97 150.62 240.71 150.4C240.47 150.19 240.26 149.93 239.97 149.73C239.71 149.55 239.51 149.22 239.21 149.05C238.93 148.89 238.52 148.95 238.2 148.79C237.91 148.64 237.64 148.46 237.32 148.32C237.03 148.18 236.83 147.81 236.51 147.67C236.21 147.54 235.87 147.5 235.54 147.38C235.24 147.26 234.87 147.28 234.55 147.16C234.24 147.05 233.98 146.79 233.65 146.67C233.33 146.56 232.94 146.66 232.62 146.56C232.3 146.45 232.03 146.16 231.71 146.07C231.38 145.97 231.03 145.97 230.71 145.89C230.38 145.8 230.06 145.69 229.74 145.61C229.41 145.53 229.11 145.29 228.79 145.22C228.46 145.15 228.07 145.36 227.74 145.31C227.4 145.25 227.08 145.17 226.75 145.12C226.41 145.07 226.09 144.95 225.76 144.91C225.42 144.87 225.08 144.89 224.75 144.87C224.41 144.84 224.08 144.8 223.74 144.79C223.4 144.78 223.06 144.83 222.73 144.83C222.39 144.83 222.05 144.73 221.72 144.74C221.38 144.75 221.05 144.87 220.72 144.89C220.38 144.92 220.06 145.03 219.73 145.07C219.39 145.11 219.02 144.91 218.7 144.96C218.36 145.01 218.04 145.14 217.71 145.21C217.38 145.28 217.09 145.53 216.77 145.61C216.44 145.69 216.1 145.7 215.78 145.8C215.45 145.9 215.06 145.79 214.75 145.91C214.43 146.03 214.17 146.3 213.86 146.43C213.55 146.56 213.3 146.82 212.99 146.96C212.68 147.11 212.26 147.02 211.97 147.18C211.67 147.34 211.45 147.64 211.17 147.82C210.88 148 210.67 148.28 210.39 148.47C210.11 148.66 209.66 148.62 209.39 148.82C209.12 149.03 208.89 149.29 208.64 149.51C208.38 149.73 208.22 150.06 207.98 150.3C207.74 150.54 207.6 150.86 207.37 151.11C207.14 151.36 206.84 151.54 206.63 151.8C206.42 152.06 206.32 152.4 206.12 152.68C205.92 152.96 205.6 153.14 205.42 153.42C205.24 153.71 205.05 153.99 204.9 154.29C204.74 154.59 204.64 154.92 204.5 155.22C204.36 155.53 204.23 155.84 204.11 156.15C203.99 156.47 204.04 156.83 203.94 157.15C203.84 157.47 203.54 157.74 203.47 158.07C203.4 158.4 203.5 158.76 203.45 159.09C203.4 159.42 203.33 159.75 203.3 160.08C203.23 160.38 203.01 160.72 203.01 161.05Z" stroke="#5E5E5E" stroke-width="3.2761" stroke-miterlimit="10"/>
<path d="M195.949 160.91C196.349 160.91 196.349 161.08 196.739 161.08C197.129 161.08 197.129 161.14 197.529 161.14C197.929 161.14 197.929 160.9 198.319 160.9C198.719 160.9 198.719 160.96 199.109 160.96C199.499 160.96 199.499 161.02 199.899 161.02C200.299 161.02 200.299 161.18 200.689 161.18C201.089 161.18 201.089 161.04 201.479 161.04C201.879 161.04 201.879 161.17 202.269 161.17" stroke="#5E5E5E" stroke-width="2.8376" stroke-miterlimit="10"/>
</g>
<circle cx="200" cy="200" r="192" stroke="#E6E6E6" stroke-width="4"/>
<defs>
<clipPath id="clip0">
<rect width="133.29" height="184.91" fill="white" transform="translate(133 108)"/>
</clipPath>
</defs>
</svg>
